<svg version="1.0" xmlns="http://www.w3.org/2000/svg"
 width="279.000000pt" height="277.000000pt" viewBox="0 0 279.000000 277.000000"
 preserveAspectRatio="xMidYMid meet">
<metadata>
Created by potrace 1.16, written by Peter Selinger 2001-2019
</metadata>
<g transform="translate(0.000000,277.000000) scale(0.100000,-0.100000)"
fill="#000000" stroke="none">
<path d="M1124 2584 c-436 -73 -809 -390 -952 -809 -54 -158 -76 -395 -53
-556 77 -524 494 -945 1020 -1030 73 -11 286 -14 347 -4 276 45 504 157 688
339 107 105 163 180 230 307 152 290 179 634 74 944 -189 560 -770 907 -1354
809z m174 -146 l-3 -103 -40 -3 c-180 -12 -375 -89 -517 -203 l-62 -50 -74 73
-73 73 43 39 c165 149 463 272 671 275 l58 1 -3 -102z m314 68 c170 -43 345
-134 466 -243 l43 -38 -73 -73 -74 -73 -61 49 c-76 62 -146 102 -244 140 -84
34 -207 62 -269 62 l-40 0 0 106 0 107 78 -6 c42 -3 121 -17 174 -31z m-61
-261 c160 -42 303 -128 422 -255 81 -86 123 -152 172 -267 52 -119 69 -222 62
-372 -6 -146 -22 -212 -81 -336 -56 -115 -88 -162 -172 -247 -187 -189 -448
-283 -710 -257 -114 12 -192 33 -291 79 -197 92 -341 235 -432 432 -65 138
-75 191 -75 373 0 148 2 166 28 245 119 361 410 598 771 628 97 8 221 -1 306
-23z m-963 -159 c23 -22 42 -45 42 -50 0 -6 -13 -24 -29 -41 -64 -67 -139
-199 -174 -305 -21 -64 -47 -192 -47 -235 l0 -35 -105 0 -105 0 0 39 c0 204
135 529 288 694 l26 27 30 -27 c17 -15 50 -46 74 -67z m1701 -62 c39 -59 84
-144 108 -205 44 -110 83 -276 83 -353 l0 -46 -104 0 -103 0 -7 69 c-16 175
-102 376 -218 510 l-30 34 73 73 73 74 29 -28 c16 -15 59 -73 96 -128z m-1909
-698 c0 -146 88 -376 195 -510 30 -38 55 -72 55 -76 0 -3 -31 -37 -70 -75
l-70 -69 -31 29 c-48 46 -153 211 -194 304 -45 103 -84 251 -92 354 l-6 77
107 0 106 0 0 -34z m2100 -12 c0 -77 -39 -243 -83 -353 -42 -108 -150 -282
-206 -336 l-31 -29 -70 69 c-39 38 -70 72 -70 75 0 4 25 38 55 76 103 129 178
314 192 477 l6 67 103 0 104 0 0 -46z m-1740 -665 c125 -103 315 -180 486
-197 l69 -7 3 -102 3 -103 -52 0 c-81 0 -245 38 -354 81 -112 45 -219 108
-307 182 l-60 49 73 74 c40 40 77 70 83 67 6 -4 31 -23 56 -44z m1352 -122
c-46 -49 -213 -153 -312 -196 -113 -48 -235 -79 -342 -88 l-78 -6 0 105 0 105
73 6 c156 14 340 88 472 192 l70 54 72 -72 73 -71 -28 -29z"/>
<path d="M827 1596 c-99 -36 -150 -114 -150 -230 0 -81 23 -137 73 -179 52
-44 149 -60 233 -36 36 10 37 11 37 56 0 39 -2 44 -17 38 -10 -4 -44 -10 -75
-13 -43 -3 -64 0 -83 12 -85 56 -87 205 -3 256 36 22 109 27 152 10 26 -9 26
-9 26 39 0 48 0 48 -37 55 -59 9 -114 6 -156 -8z"/>
<path d="M1100 1435 c0 -184 7 -214 59 -257 57 -49 184 -49 241 -1 57 48 64
72 68 256 l4 167 -51 0 -51 0 0 -144 c0 -194 -13 -226 -94 -226 -25 0 -40 7
-55 26 -19 24 -21 40 -21 185 l0 159 -50 0 -50 0 0 -165z"/>
<path d="M1560 1375 l0 -225 50 0 50 0 0 74 0 74 63 6 c104 12 167 67 167 149
0 110 -55 146 -222 147 l-108 0 0 -225z m205 125 c10 -11 18 -34 18 -52 0 -41
-33 -68 -84 -68 l-39 0 0 70 0 70 43 0 c31 0 49 -6 62 -20z"/>
</g>
</svg>